<svg width="38" height="40" viewBox="0 0 38 40" fill="none" xmlns="http://www.w3.org/2000/svg">
<path d="M34.3188 15.0625C33.4842 12.9832 32.2744 11.0942 30.7563 9.5C29.2418 7.90199 27.4472 6.62845 25.4719 5.75C23.4197 4.83594 21.2451 4.375 19 4.375C16.7549 4.375 14.5803 4.83594 12.5281 5.75C10.5528 6.62845 8.75821 7.90199 7.24375 9.5C5.72564 11.0942 4.51578 12.9832 3.68125 15.0625C2.81289 17.2227 2.375 19.5117 2.375 21.875C2.375 27.0586 4.53848 31.9414 8.30879 35.2773L8.37188 35.332C8.58711 35.5195 8.85801 35.625 9.13633 35.625H28.8674C29.1457 35.625 29.4166 35.5195 29.6318 35.332L29.6949 35.2773C33.4615 31.9414 35.625 27.0586 35.625 21.875C35.625 19.5117 35.1834 17.2227 34.3188 15.0625ZM28.2551 32.6562H9.74492C8.311 31.2953 7.16496 29.6322 6.38117 27.7748C5.59738 25.9174 5.19335 23.9074 5.19531 21.875C5.19531 17.9922 6.63145 14.3438 9.24023 11.6016C11.849 8.85547 15.315 7.34375 19 7.34375C22.6887 7.34375 26.1547 8.85547 28.7598 11.6016C31.3686 14.3477 32.8047 17.9961 32.8047 21.875C32.8047 26 31.1533 29.9023 28.2551 32.6562ZM23.1377 16.4648C23.0819 16.4067 23.0065 16.3741 22.928 16.3741C22.8495 16.3741 22.7742 16.4067 22.7184 16.4648L19.5826 19.7656C18.8887 19.5703 18.1205 19.7578 17.575 20.332C17.3818 20.535 17.2285 20.7761 17.1239 21.0416C17.0193 21.307 16.9655 21.5915 16.9655 21.8789C16.9655 22.1663 17.0193 22.4508 17.1239 22.7162C17.2285 22.9817 17.3818 23.2228 17.575 23.4258C17.7679 23.6292 17.9969 23.7905 18.2491 23.9006C18.5012 24.0107 18.7715 24.0674 19.0445 24.0674C19.3175 24.0674 19.5878 24.0107 19.84 23.9006C20.0922 23.7905 20.3212 23.6292 20.5141 23.4258C20.7725 23.1545 20.9584 22.8163 21.0529 22.4452C21.1473 22.0742 21.1471 21.6834 21.0521 21.3125L24.1879 18.0117C24.3029 17.8906 24.3029 17.6914 24.1879 17.5703L23.1377 16.4648ZM18.1836 12.5H19.8164C19.9797 12.5 20.1133 12.3594 20.1133 12.1875V9.0625C20.1133 8.89062 19.9797 8.75 19.8164 8.75H18.1836C18.0203 8.75 17.8867 8.89062 17.8867 9.0625V12.1875C17.8867 12.3594 18.0203 12.5 18.1836 12.5ZM27.832 21.0156V22.7344C27.832 22.9062 27.9656 23.0469 28.1289 23.0469H31.0977C31.2609 23.0469 31.3945 22.9062 31.3945 22.7344V21.0156C31.3945 20.8438 31.2609 20.7031 31.0977 20.7031H28.1289C27.9656 20.7031 27.832 20.8438 27.832 21.0156ZM28.3033 13.3125L27.1492 12.0977C27.0934 12.0395 27.0181 12.0069 26.9396 12.0069C26.861 12.0069 26.7857 12.0395 26.7299 12.0977L24.6295 14.3086C24.5742 14.3673 24.5432 14.4466 24.5432 14.5293C24.5432 14.612 24.5742 14.6913 24.6295 14.75L25.7836 15.9648C25.8986 16.0859 26.0879 16.0859 26.2029 15.9648L28.3033 13.7539C28.4184 13.6328 28.4184 13.4336 28.3033 13.3125ZM11.285 12.0977C11.2292 12.0395 11.1538 12.0069 11.0753 12.0069C10.9968 12.0069 10.9214 12.0395 10.8656 12.0977L9.71152 13.3125C9.65627 13.3712 9.62528 13.4505 9.62528 13.5332C9.62528 13.6159 9.65627 13.6952 9.71152 13.7539L11.8119 15.9648C11.927 16.0859 12.1162 16.0859 12.2312 15.9648L13.3854 14.75C13.5004 14.6289 13.5004 14.4297 13.3854 14.3086L11.285 12.0977ZM9.72266 20.7031H6.75391C6.59062 20.7031 6.45703 20.8438 6.45703 21.0156V22.7344C6.45703 22.9062 6.59062 23.0469 6.75391 23.0469H9.72266C9.88594 23.0469 10.0195 22.9062 10.0195 22.7344V21.0156C10.0195 20.8438 9.88594 20.7031 9.72266 20.7031Z" fill="white"/>
</svg>
