<svg width="38" height="39" viewBox="0 0 38 39" fill="none" xmlns="http://www.w3.org/2000/svg">
<path d="M31.7458 17.875H6.25417C5.42344 17.875 4.75 18.5662 4.75 19.4187V19.5813C4.75 20.4338 5.42344 21.125 6.25417 21.125H31.7458C32.5766 21.125 33.25 20.4338 33.25 19.5813V19.4187C33.25 18.5662 32.5766 17.875 31.7458 17.875Z" fill="white"/>
<path d="M31.7458 26H6.25417C5.42344 26 4.75 26.6912 4.75 27.5438V27.7062C4.75 28.5588 5.42344 29.25 6.25417 29.25H31.7458C32.5766 29.25 33.25 28.5588 33.25 27.7062V27.5438C33.25 26.6912 32.5766 26 31.7458 26Z" fill="white"/>
<path d="M31.7458 9.75H6.25417C5.42344 9.75 4.75 10.4412 4.75 11.2937V11.4563C4.75 12.3088 5.42344 13 6.25417 13H31.7458C32.5766 13 33.25 12.3088 33.25 11.4563V11.2937C33.25 10.4412 32.5766 9.75 31.7458 9.75Z" fill="white"/>
</svg>
