<svg width="30" height="31" viewBox="0 0 30 31" fill="none" xmlns="http://www.w3.org/2000/svg">
<path d="M1.25 23.25C0.895833 23.25 0.599167 23.126 0.36 22.878C0.12 22.6309 0 22.3243 0 21.9583V21.2156C0 20.2684 0.458333 19.5093 1.375 18.9384C2.29167 18.3684 3.5 18.0833 5 18.0833C5.27083 18.0833 5.52625 18.0941 5.76625 18.1156C6.00542 18.1372 6.23958 18.1694 6.46875 18.2125C6.17708 18.6431 5.96333 19.1059 5.8275 19.601C5.6925 20.0962 5.625 20.6236 5.625 21.1833V23.25H1.25ZM8.75 23.25C8.39583 23.25 8.09875 23.126 7.85875 22.878C7.61958 22.6309 7.5 22.3243 7.5 21.9583V21.1833C7.5 19.784 8.19292 18.6482 9.57875 17.7759C10.9638 16.9045 12.7708 16.4687 15 16.4687C17.25 16.4687 19.0625 16.9045 20.4375 17.7759C21.8125 18.6482 22.5 19.784 22.5 21.1833V21.9583C22.5 22.3243 22.38 22.6309 22.14 22.878C21.9008 23.126 21.6042 23.25 21.25 23.25H8.75ZM24.375 23.25V21.1833C24.375 20.6236 24.3021 20.0962 24.1563 19.601C24.0104 19.1059 23.8021 18.6431 23.5313 18.2125C23.7604 18.1694 23.995 18.1372 24.235 18.1156C24.4742 18.0941 24.7292 18.0833 25 18.0833C26.5 18.0833 27.7083 18.3684 28.625 18.9384C29.5417 19.5093 30 20.2684 30 21.2156V21.9583C30 22.3243 29.88 22.6309 29.64 22.878C29.4008 23.126 29.1042 23.25 28.75 23.25H24.375ZM5 16.7917C4.3125 16.7917 3.72417 16.5385 3.235 16.0322C2.745 15.5267 2.5 14.9187 2.5 14.2083C2.5 13.4979 2.745 12.8895 3.235 12.3832C3.72417 11.8777 4.3125 11.625 5 11.625C5.6875 11.625 6.27583 11.8777 6.765 12.3832C7.255 12.8895 7.5 13.4979 7.5 14.2083C7.5 14.9187 7.255 15.5267 6.765 16.0322C6.27583 16.5385 5.6875 16.7917 5 16.7917ZM25 16.7917C24.3125 16.7917 23.7237 16.5385 23.2337 16.0322C22.7446 15.5267 22.5 14.9187 22.5 14.2083C22.5 13.4979 22.7446 12.8895 23.2337 12.3832C23.7237 11.8777 24.3125 11.625 25 11.625C25.6875 11.625 26.2763 11.8777 26.7663 12.3832C27.2554 12.8895 27.5 13.4979 27.5 14.2083C27.5 14.9187 27.2554 15.5267 26.7663 16.0322C26.2763 16.5385 25.6875 16.7917 25 16.7917ZM15 15.5C13.9583 15.5 13.0729 15.1233 12.3438 14.3698C11.6146 13.6163 11.25 12.7014 11.25 11.625C11.25 10.5486 11.6146 9.63368 12.3438 8.88021C13.0729 8.12674 13.9583 7.75 15 7.75C16.0417 7.75 16.9271 8.12674 17.6562 8.88021C18.3854 9.63368 18.75 10.5486 18.75 11.625C18.75 12.7014 18.3854 13.6163 17.6562 14.3698C16.9271 15.1233 16.0417 15.5 15 15.5Z" fill="white"/>
</svg>
