<svg width="43" height="36" viewBox="0 0 43 36" fill="none" xmlns="http://www.w3.org/2000/svg">
<path d="M4.47913 5.25C4.47913 4.65326 4.76227 4.08097 5.26628 3.65901C5.77028 3.23705 6.45386 3 7.16663 3H28.6666C29.3794 3 30.063 3.23705 30.567 3.65901C31.071 4.08097 31.3541 4.65326 31.3541 5.25V33H7.16663C6.45386 33 5.77028 32.7629 5.26628 32.341C4.76227 31.919 4.47913 31.3467 4.47913 30.75V5.25ZM31.3541 18C31.3541 17.6022 31.5429 17.2206 31.8789 16.9393C32.2149 16.658 32.6706 16.5 33.1458 16.5H36.7291C37.2043 16.5 37.66 16.658 37.996 16.9393C38.332 17.2206 38.5208 17.6022 38.5208 18V30.75C38.5208 31.3467 38.2376 31.919 37.7336 32.341C37.2296 32.7629 36.5461 33 35.8333 33H31.3541V18Z" stroke="black" stroke-opacity="0.7" stroke-width="4" stroke-linejoin="round"/>
<path d="M9.85413 9H17.0208M9.85413 14.25H20.6041" stroke="black" stroke-opacity="0.7" stroke-width="4" stroke-linecap="round" stroke-linejoin="round"/>
</svg>
