<svg width="36" height="30" viewBox="0 0 36 30" fill="none" xmlns="http://www.w3.org/2000/svg">
<path fill-rule="evenodd" clip-rule="evenodd" d="M9.9135 3.65999C12.1623 1.30946 15.0305 0.0112868 18 0C24.0525 0 29.0768 5.45454 29.6235 12.4882C33.2055 13.1018 36 16.7372 36 21.199C36 26.0972 32.6295 29.9999 28.5457 29.9999H22.5C22.2016 29.9999 21.9155 29.8563 21.7045 29.6005C21.4935 29.3448 21.375 28.998 21.375 28.6363C21.375 28.2747 21.4935 27.9278 21.7045 27.6721C21.9155 27.4163 22.2016 27.2727 22.5 27.2727H28.548C31.4527 27.2727 33.75 24.5127 33.75 21.199C33.75 17.8827 31.455 15.1227 28.5457 15.1227H27.4207V13.7591C27.423 7.70453 23.238 2.72727 18 2.72727C15.5697 2.73903 13.2229 3.80299 11.3827 5.72726C9.6795 7.50544 8.7885 9.64907 8.7885 11.3318V12.5536L7.78725 12.6872C4.644 13.1045 2.25 16.2327 2.25 19.9581C2.25 23.959 5.0175 27.2727 8.50725 27.2727H13.5C13.7984 27.2727 14.0845 27.4163 14.2955 27.6721C14.5065 27.9278 14.625 28.2747 14.625 28.6363C14.625 28.998 14.5065 29.3448 14.2955 29.6005C14.0845 29.8563 13.7984 29.9999 13.5 29.9999H8.50725C3.843 29.9999 0 25.5436 0 19.9581C0 15.15 2.8485 11.1682 6.6195 10.1591C6.94125 7.80544 8.19 5.45999 9.9135 3.65999Z" fill="black"/>
<path fill-rule="evenodd" clip-rule="evenodd" d="M17.4692 12.219C17.5389 12.1492 17.6216 12.0938 17.7128 12.056C17.8039 12.0181 17.9016 11.9987 18.0002 11.9987C18.0989 11.9987 18.1965 12.0181 18.2877 12.056C18.3788 12.0938 18.4615 12.1492 18.5312 12.219L23.0312 16.719C23.172 16.8598 23.2512 17.0509 23.2512 17.25C23.2512 17.4492 23.172 17.6402 23.0312 17.781C22.8904 17.9218 22.6994 18.001 22.5002 18.001C22.3011 18.001 22.11 17.9218 21.9692 17.781L18.7502 14.5605V27.75C18.7502 27.9489 18.6712 28.1397 18.5305 28.2803C18.3899 28.421 18.1991 28.5 18.0002 28.5C17.8013 28.5 17.6105 28.421 17.4699 28.2803C17.3292 28.1397 17.2502 27.9489 17.2502 27.75V14.5605L14.0312 17.781C13.8904 17.9218 13.6994 18.001 13.5002 18.001C13.3011 18.001 13.11 17.9218 12.9692 17.781C12.8284 17.6402 12.7493 17.4492 12.7493 17.25C12.7493 17.0509 12.8284 16.8598 12.9692 16.719L17.4692 12.219Z" fill="black"/>
</svg>
