<svg width="38" height="33" viewBox="0 0 38 33" fill="none" xmlns="http://www.w3.org/2000/svg">
<path d="M19 16.5C23.3722 16.5 26.9167 13.422 26.9167 9.625C26.9167 5.82804 23.3722 2.75 19 2.75C14.6277 2.75 11.0833 5.82804 11.0833 9.625C11.0833 13.422 14.6277 16.5 19 16.5Z" stroke="#8C8F8F" stroke-width="2"/>
<path d="M26.9167 19.25H27.474C28.6315 19.2503 29.7491 19.6176 30.6168 20.283C31.4844 20.9484 32.0425 21.866 32.186 22.8635L32.8051 27.159C32.8608 27.546 32.821 27.9388 32.6885 28.3114C32.556 28.684 32.3338 29.0279 32.0366 29.3202C31.7393 29.6125 31.3739 29.8466 30.9645 30.0069C30.5552 30.1672 30.1112 30.2501 29.6622 30.25H8.33783C7.88877 30.2501 7.44482 30.1672 7.03545 30.0069C6.62608 29.8466 6.26065 29.6125 5.96342 29.3202C5.66619 29.0279 5.44395 28.684 5.31145 28.3114C5.17895 27.9388 5.13923 27.546 5.19491 27.159L5.81241 22.8635C5.95601 21.8656 6.51449 20.9475 7.38281 20.2821C8.25114 19.6167 9.36949 19.2496 10.5276 19.25H11.0833" stroke="#8C8F8F" stroke-width="2" stroke-linecap="round" stroke-linejoin="round"/>
</svg>
