<svg width="37" height="36" viewBox="0 0 37 36" fill="none" xmlns="http://www.w3.org/2000/svg">
<g clip-path="url(#clip0_13_1526)">
<path d="M18.5925 20.59C18.0392 20.5941 17.5031 20.7783 17.07 21.1133C16.6368 21.4484 16.3314 21.9149 16.2025 22.4385C16.0735 22.9621 16.1285 23.5126 16.3587 24.0022C16.5888 24.4919 16.9808 24.8924 17.4722 25.14V28H19.5278V25.23C20.0585 25.0184 20.4972 24.6342 20.7692 24.1429C21.0412 23.6516 21.1295 23.0838 21.0191 22.5362C20.9088 21.9886 20.6065 21.4953 20.164 21.1403C19.7214 20.7854 19.166 20.5909 18.5925 20.59Z" fill="#8C8F8F"/>
<path d="M26.7222 15V10.72C26.7664 8.55189 25.926 6.45504 24.3851 4.88829C22.8442 3.32154 20.7281 2.41247 18.5 2.36C16.2719 2.41247 14.1558 3.32154 12.6149 4.88829C11.074 6.45504 10.2336 8.55189 10.2778 10.72V15H7.19444V32C7.19444 32.5304 7.41101 33.0391 7.7965 33.4142C8.18199 33.7893 8.70483 34 9.25 34H27.75C28.2952 34 28.818 33.7893 29.2035 33.4142C29.589 33.0391 29.8056 32.5304 29.8056 32V15H26.7222ZM12.3333 10.72C12.289 9.08224 12.9127 7.49399 14.0682 6.30228C15.2237 5.11057 16.817 4.41228 18.5 4.36C20.183 4.41228 21.7763 5.11057 22.9318 6.30228C24.0872 7.49399 24.711 9.08224 24.6667 10.72V15H12.3333V10.72ZM9.25 32V17H27.75V32H9.25Z" fill="#8C8F8F"/>
</g>
<defs>
<clipPath id="clip0_13_1526">
<rect width="37" height="36" fill="white"/>
</clipPath>
</defs>
</svg>
