<svg width="34" height="33" viewBox="0 0 34 33" fill="none" xmlns="http://www.w3.org/2000/svg">
<path d="M30.1518 11.3792L21.7215 10.19L17.9529 2.77471C17.85 2.57168 17.6807 2.40733 17.4715 2.30742C16.9469 2.05606 16.3094 2.26553 16.0471 2.77471L12.2785 10.19L3.84826 11.3792C3.61584 11.4114 3.40334 11.5178 3.24064 11.6789C3.04395 11.8751 2.93557 12.1391 2.9393 12.4128C2.94304 12.6866 3.05859 12.9477 3.26056 13.1388L9.35998 18.9106L7.91896 27.0607C7.88517 27.2502 7.90678 27.4452 7.98136 27.6235C8.05593 27.8018 8.18047 27.9562 8.34087 28.0693C8.50126 28.1823 8.69109 28.2495 8.88882 28.2632C9.08656 28.2769 9.28429 28.2365 9.45959 28.1467L17 24.2988L24.5404 28.1467C24.7463 28.253 24.9854 28.2885 25.2145 28.2498C25.7922 28.1531 26.1807 27.6214 26.0811 27.0607L24.6401 18.9106L30.7395 13.1388C30.9055 12.9809 31.0151 12.7746 31.0483 12.549C31.1379 11.9851 30.7328 11.463 30.1518 11.3792V11.3792ZM22.0735 18.0984L23.2721 24.8757L17 21.6788L10.7279 24.8789L11.9266 18.1017L6.85314 13.2999L13.8656 12.3106L17 6.14561L20.1344 12.3106L27.1469 13.2999L22.0735 18.0984Z" fill="white"/>
</svg>
