<svg width="21" height="28" viewBox="0 0 21 28" fill="none" xmlns="http://www.w3.org/2000/svg">
<path d="M21 23.1693C21 24.4939 20.6582 25.6302 19.9746 26.5781C19.291 27.526 18.468 28 17.5055 28H3.49453C2.53203 28 1.70898 27.526 1.02539 26.5781C0.341797 25.6302 0 24.4939 0 23.1693C0 22.1363 0.0464844 21.161 0.139453 20.2435C0.232422 19.326 0.404687 18.4023 0.65625 17.4727C0.907812 16.543 1.22773 15.747 1.61602 15.0846C2.0043 14.4223 2.51836 13.8815 3.1582 13.4622C3.79805 13.043 4.53359 12.8333 5.36484 12.8333C6.79766 14.3889 8.50937 15.1667 10.5 15.1667C12.4906 15.1667 14.2023 14.3889 15.6352 12.8333C16.4664 12.8333 17.202 13.043 17.8418 13.4622C18.4816 13.8815 18.9957 14.4223 19.384 15.0846C19.7723 15.747 20.0922 16.543 20.3437 17.4727C20.5953 18.4023 20.7676 19.326 20.8605 20.2435C20.9535 21.161 21 22.1363 21 23.1693ZM16.8 7C16.8 8.93229 16.1848 10.582 14.9543 11.9492C13.7238 13.3164 12.2391 14 10.5 14C8.76094 14 7.27617 13.3164 6.0457 11.9492C4.81523 10.582 4.2 8.93229 4.2 7C4.2 5.06771 4.81523 3.41797 6.0457 2.05078C7.27617 0.683594 8.76094 0 10.5 0C12.2391 0 13.7238 0.683594 14.9543 2.05078C16.1848 3.41797 16.8 5.06771 16.8 7Z" fill="white"/>
</svg>
